<svg width="30" height="30" viewBox="0 0 30 30" fill="none" xmlns="http://www.w3.org/2000/svg">
<g clip-path="url(#clip0_4_129)">
<path d="M26.0417 6.16667C24.1533 5.66268 22.3085 5.00779 20.525 4.20833C18.7704 3.44718 17.0765 2.5529 15.4583 1.53333L15 1.25L14.55 1.54167C12.9318 2.56124 11.238 3.45551 9.48334 4.21667C7.69692 5.0137 5.8493 5.6658 3.95834 6.16667L3.33334 6.325V13.275C3.33334 24.4333 14.6083 28.6083 14.7167 28.65L15 28.75L15.2833 28.65C15.4 28.65 26.6667 24.4417 26.6667 13.275V6.325L26.0417 6.16667ZM25 13.275C25 22.4417 16.6667 26.2833 15 26.9667C13.3333 26.2833 5.00001 22.4333 5.00001 13.275V7.61667C6.7579 7.1113 8.47869 6.4848 10.15 5.74167C11.8214 5.01916 13.4418 4.1839 15 3.24167C16.5582 4.1839 18.1786 5.01916 19.85 5.74167C21.5213 6.4848 23.2421 7.1113 25 7.61667V13.275Z" fill="#707070"/>
<path d="M9.06667 14.0583C8.90725 13.9218 8.70218 13.8504 8.49245 13.8585C8.28272 13.8666 8.08377 13.9536 7.93536 14.102C7.78695 14.2504 7.70001 14.4494 7.69191 14.6591C7.6838 14.8688 7.75514 15.0739 7.89167 15.2333L12.8917 20.2333L22 11.475C22.1591 11.3203 22.2503 11.1087 22.2534 10.8868C22.2565 10.6648 22.1714 10.4508 22.0167 10.2916C21.862 10.1325 21.6504 10.0414 21.4285 10.0382C21.2065 10.0351 20.9925 10.1203 20.8333 10.275L12.9417 17.9333L9.06667 14.0583Z" fill="#707070"/>
</g>
<defs>
<clipPath id="clip0_4_129">
<rect width="30" height="30" fill="white"/>
</clipPath>
</defs>
</svg>
