<svg width="60" height="60" viewBox="0 0 60 60" fill="none" xmlns="http://www.w3.org/2000/svg">
<path d="M46.0078 44.4141C46.0078 45.1406 45.4219 45.8672 44.5547 45.8672C43.8281 45.8672 43.1016 45.2812 43.1016 44.4141V44.2734V44.1328C42.2344 37.7344 36.7031 33.0703 30.1406 33.0703H30H29.8594C23.2969 33.0703 17.9297 37.7344 16.8984 43.9922C16.8984 44.1328 16.8984 44.2969 16.8984 44.4375V44.5781C16.8984 45.4453 16.1719 46.0312 15.4453 46.0312C14.7188 46.0312 13.9922 45.3047 13.9922 44.5781V44.4375C13.9922 44.2969 13.9922 44.1328 13.9922 44.1328C14.7187 38.3203 18.6562 33.5156 24.0234 31.4766C20.9531 29.4375 18.9375 25.9453 18.9375 22.0078C18.9375 15.7266 23.7422 10.7812 30 10.7812C36.2578 10.7812 41.0625 15.8672 41.0625 21.9844C41.0625 26.0625 39.0234 29.5547 35.9766 31.4531C41.2031 33.4922 45.1406 38.1562 46.0078 43.9688C46.0078 43.9688 46.0078 44.1328 46.0078 44.4141ZM38.4375 21.8437C38.4375 17.1797 34.6406 13.4062 30 13.4062C25.3359 13.4062 21.5625 17.2031 21.5625 21.8437C21.5625 26.5078 25.3594 30.2812 30 30.2812C34.6641 30.3047 38.4375 26.5078 38.4375 21.8437Z" fill="white"/>
<path d="M30 57.6562C14.7188 57.6562 2.34375 45.2812 2.34375 30C2.34375 14.7188 14.7188 2.34375 30 2.34375C45.2812 2.34375 57.6562 14.7188 57.6562 30C57.6562 45.2812 45.2812 57.6562 30 57.6562ZM30 4.80469C16.1719 4.80469 4.80469 16.0312 4.80469 30C4.80469 43.9688 16.0078 55.1953 30 55.1953C43.9688 55.1953 55.1953 43.9922 55.1953 30C55.1953 16.0312 43.8281 4.80469 30 4.80469Z" fill="white"/>
</svg>
