<svg width="35" height="35" viewBox="0 0 35 35" fill="none" xmlns="http://www.w3.org/2000/svg">
<path d="M29.2156 30.4418H5.74564C2.68334 30.4418 0.192322 27.9508 0.192322 24.8885V10.0719C0.192322 7.00996 2.68373 4.51855 5.74564 4.51855H29.2156C32.2775 4.51855 34.7685 7.00996 34.7685 10.0719V24.8885C34.7685 27.9508 32.2775 30.4418 29.2156 30.4418ZM5.74564 6.14248C3.57887 6.14248 1.81625 7.9051 1.81625 10.0719V24.8885C1.81625 27.0553 3.57887 28.8183 5.74564 28.8183H29.2156C31.3823 28.8183 33.145 27.0553 33.145 24.8885V10.0719C33.145 7.9051 31.3823 6.14248 29.2156 6.14248H5.74564Z" fill="#707070"/>
<path d="M4.4352 10.1491C8.58588 14.1937 12.7366 18.238 16.8872 22.2826C17.661 23.0364 18.8485 21.8516 18.0736 21.0963C13.9229 17.052 9.77222 13.0074 5.62155 8.96312C4.84781 8.20898 3.66031 9.39417 4.4352 10.1491Z" fill="#707070"/>
<path d="M18.0736 22.2826C22.2243 18.2384 26.3749 14.1937 30.5256 10.1495C31.3001 9.39457 30.1134 8.20899 29.3393 8.96313C25.1886 13.0074 21.0379 17.052 16.8872 21.0963C16.1127 21.8512 17.2995 23.0368 18.0736 22.2826Z" fill="#707070"/>
<path d="M30.4799 25.1456C27.718 22.5262 24.9558 19.9073 22.1939 17.2879C21.4106 16.5453 20.2223 17.7293 21.0076 18.4743C23.7694 21.0936 26.5317 23.7126 29.2936 26.3319C30.0769 27.0745 31.2652 25.8901 30.4799 25.1456Z" fill="#707070"/>
<path d="M5.74218 26.3315C8.50405 23.7122 11.2663 21.0932 14.0282 18.4739C14.8131 17.7294 13.6256 16.5445 12.8418 17.2875C10.08 19.9069 7.3177 22.5258 4.55584 25.1452C3.77096 25.8897 4.95846 27.0749 5.74218 26.3315Z" fill="#707070"/>
</svg>
