<svg width="30" height="30" viewBox="0 0 30 30" fill="none" xmlns="http://www.w3.org/2000/svg">
<path d="M23.4375 11.25H22.5V7.6725C22.5 3.37031 19.3875 0 14.9653 0C10.5253 0 7.5 3.44156 7.5 7.6725V11.25H6.5625C4.49437 11.25 2.8125 12.9319 2.8125 15V26.25C2.8125 28.3181 4.49437 30 6.5625 30H23.4375C25.5056 30 27.1875 28.3181 27.1875 26.25V15C27.1875 12.9319 25.5056 11.25 23.4375 11.25ZM9.375 7.6725C9.375 4.47656 11.5594 1.875 14.9653 1.875C18.3366 1.875 20.625 4.42125 20.625 7.6725V11.25H9.375V7.6725ZM25.3125 26.25C25.3125 27.2831 24.4706 28.125 23.4375 28.125H6.5625C5.52844 28.125 4.6875 27.2831 4.6875 26.25V15C4.6875 13.9669 5.52844 13.125 6.5625 13.125H23.4375C24.4706 13.125 25.3125 13.9669 25.3125 15V26.25ZM15 16.875C13.965 16.875 13.125 17.7141 13.125 18.75C13.125 19.4419 13.5047 20.04 14.0625 20.3653V23.4375C14.0625 23.955 14.4825 24.375 15 24.375C15.5175 24.375 15.9375 23.955 15.9375 23.4375V20.3653C16.4953 20.0409 16.875 19.4419 16.875 18.75C16.875 17.7141 16.0359 16.875 15 16.875Z" fill="#707070"/>
</svg>
