<svg width="61" height="53" viewBox="0 0 61 53" fill="none" xmlns="http://www.w3.org/2000/svg">
<g filter="url(#filter0_d_4_233)">
<path d="M57 15.7829C57 13.5605 55.1966 11.7588 52.9742 11.7588C50.7502 11.7588 48.9468 13.5605 48.9468 15.7829C48.9468 16.8698 49.3787 17.8549 50.079 18.5778C47.3407 24.2485 42.1067 26.2283 38.0502 24.4362C34.4369 22.8381 33.1041 18.2705 32.6528 14.7316C34.1263 13.9569 35.1308 12.4138 35.1308 10.633C35.1307 8.07588 33.0588 6.00391 30.5 6.00391C27.9429 6.00391 25.8693 8.07588 25.8693 10.633C25.8693 12.4138 26.8737 13.9568 28.3473 14.7316C27.8961 18.2706 26.5633 22.8382 22.9499 24.4362C18.8933 26.2284 13.6594 24.2485 10.9211 18.5778C11.6214 17.8549 12.0533 16.8698 12.0533 15.7829C12.0533 13.5605 10.2499 11.7588 8.02748 11.7588C5.80345 11.7588 4 13.5605 4 15.7829C4 17.8306 5.53006 19.5176 7.50659 19.7731L12.147 36.7578H48.853L53.4934 19.7731C55.4715 19.5176 57 17.8306 57 15.7829Z" fill="black"/>
<path d="M51.1013 41.7706C51.1013 43.4252 49.7604 44.7661 48.1042 44.7661H12.8959C11.2412 44.766 9.90039 43.4252 9.90039 41.7706V41.5215C9.90039 39.8653 11.2412 38.5244 12.8959 38.5244H48.1042C49.7604 38.5244 51.1013 39.8653 51.1013 41.5215V41.7706Z" fill="black"/>
</g>
<defs>
<filter id="filter0_d_4_233" x="0" y="0" width="61" height="61" filterUnits="userSpaceOnUse" color-interpolation-filters="sRGB">
<feFlood flood-opacity="0" result="BackgroundImageFix"/>
<feColorMatrix in="SourceAlpha" type="matrix" values="0 0 0 0 0 0 0 0 0 0 0 0 0 0 0 0 0 0 127 0" result="hardAlpha"/>
<feOffset dy="4"/>
<feGaussianBlur stdDeviation="2"/>
<feComposite in2="hardAlpha" operator="out"/>
<feColorMatrix type="matrix" values="0 0 0 0 0 0 0 0 0 0 0 0 0 0 0 0 0 0 0.25 0"/>
<feBlend mode="normal" in2="BackgroundImageFix" result="effect1_dropShadow_4_233"/>
<feBlend mode="normal" in="SourceGraphic" in2="effect1_dropShadow_4_233" result="shape"/>
</filter>
</defs>
</svg>