<svg width="35" height="35" viewBox="0 0 35 35" fill="none" xmlns="http://www.w3.org/2000/svg">
<path d="M26.8379 25.9082C26.8379 26.332 26.4961 26.7559 25.9902 26.7559C25.5664 26.7559 25.1426 26.4141 25.1426 25.9082V25.8262V25.7441C24.6367 22.0117 21.4102 19.291 17.582 19.291H17.5H17.418C13.5898 19.291 10.459 22.0117 9.85742 25.6621C9.85742 25.7441 9.85742 25.8398 9.85742 25.9219V26.0039C9.85742 26.5098 9.43359 26.8516 9.00977 26.8516C8.58594 26.8516 8.16211 26.4277 8.16211 26.0039V25.9219C8.16211 25.8398 8.16211 25.7441 8.16211 25.7441C8.58594 22.3535 10.8828 19.5508 14.0137 18.3613C12.2227 17.1719 11.0469 15.1348 11.0469 12.8379C11.0469 9.17383 13.8496 6.28906 17.5 6.28906C21.1504 6.28906 23.9531 9.25586 23.9531 12.8242C23.9531 15.2031 22.7637 17.2402 20.9863 18.3477C24.0352 19.5371 26.332 22.2578 26.8379 25.6484C26.8379 25.6484 26.8379 25.7441 26.8379 25.9082ZM22.4219 12.7422C22.4219 10.0215 20.207 7.82031 17.5 7.82031C14.7793 7.82031 12.5781 10.0352 12.5781 12.7422C12.5781 15.4629 14.793 17.6641 17.5 17.6641C20.2207 17.6777 22.4219 15.4629 22.4219 12.7422Z" fill="#707070"/>
<path d="M17.5 33.6328C8.58594 33.6328 1.36719 26.4141 1.36719 17.5C1.36719 8.58594 8.58594 1.36719 17.5 1.36719C26.4141 1.36719 33.6328 8.58594 33.6328 17.5C33.6328 26.4141 26.4141 33.6328 17.5 33.6328ZM17.5 2.80273C9.43359 2.80273 2.80273 9.35156 2.80273 17.5C2.80273 25.6484 9.33789 32.1973 17.5 32.1973C25.6484 32.1973 32.1973 25.6621 32.1973 17.5C32.1973 9.35156 25.5664 2.80273 17.5 2.80273Z" fill="#707070"/>
</svg>
