<svg width="50" height="50" viewBox="0 0 50 50" fill="none" xmlns="http://www.w3.org/2000/svg">
<path d="M41.0547 4.04297C39.961 5.13672 39.0039 6.15234 38.9258 6.30859C38.8281 6.50391 38.75 7.14844 38.6719 8.4375L38.5547 10.3125L32.1485 16.7188L25.7422 23.125L25.293 23.0078C23.2227 22.4609 21.6406 24.9805 23.0274 26.6016C24.1016 27.8516 26.0352 27.6367 26.7578 26.1719C26.9531 25.7422 26.9922 25.5664 26.9727 25.0586L26.9531 24.4336L33.3985 17.9883L39.8438 11.543L41.7188 11.4258C43.0274 11.3281 43.6719 11.25 43.8672 11.1523C44.2774 10.9375 48.1055 7.05078 48.1055 6.85547C48.1055 6.62109 47.9492 6.36719 47.7735 6.28906C47.6367 6.23047 44.6875 5.76172 44.4922 5.76172C44.4531 5.76172 44.3164 5.09766 44.1992 4.27734C44.0821 3.47656 43.9453 2.67578 43.8867 2.5C43.8086 2.20703 43.5352 2.01172 43.2227 2.01172C43.1055 2.07031 42.168 2.96875 41.0547 4.04297Z" fill="black"/>
<path d="M22.1875 2.53906C17.461 3.08594 12.8906 5.15625 9.41409 8.35938C0.546896 16.4844 -0.546854 29.8047 6.83596 39.2773C9.98049 43.3008 14.668 46.2695 19.668 47.3828C23.125 48.1641 26.9727 48.1055 30.3321 47.2461C38.7696 45.0781 45.2735 38.2813 47.0117 29.8047C47.3828 28.0078 47.5196 26.3477 47.4414 24.3945C47.3242 21.0156 46.6211 18.2422 45.1367 15.1953C44.2969 13.4961 43.9649 12.9688 43.75 13.0469C43.6719 13.0664 42.9102 13.1445 42.0508 13.2031L40.5078 13.3008L39.9219 13.8867L39.336 14.4727L39.8633 15.2539C42.3633 18.9844 43.3789 23.9062 42.5782 28.3984C41.543 34.1211 37.8711 38.9648 32.5781 41.5234C25.6641 44.9023 17.4024 43.5156 11.9336 38.0664C9.17971 35.332 7.53908 32.1484 6.7969 28.2227C6.56252 26.9922 6.52346 24.2969 6.69924 22.9102C7.12893 19.6875 8.3008 16.8359 10.2539 14.2383C10.9961 13.2812 12.5 11.7188 13.418 10.9961C15.5078 9.31641 18.3008 8.00781 20.9375 7.44141C25.7422 6.42578 30.6055 7.34375 34.7071 10.0586L35.7032 10.7227L36.2696 10.1562L36.836 9.58984L36.9336 8.14453C36.9922 7.34375 37.0508 6.5625 37.0703 6.40625C37.1094 6.13281 37.0899 6.07422 36.6797 5.82031C36.4453 5.66406 35.586 5.19531 34.7657 4.80469C32.461 3.65234 30.0391 2.91016 27.4024 2.59766C26.25 2.42188 23.3399 2.40234 22.1875 2.53906Z" fill="black"/>
<path d="M22.5195 11.6406C20.918 11.9141 19.3555 12.4805 17.9297 13.2812C15.5664 14.6289 13.4961 16.8555 12.3438 19.2578C11.4063 21.2305 11.0352 22.9297 11.0352 25.2539C11.0352 27.5977 11.4063 29.1601 12.4414 31.25C13.2617 32.9101 14.2969 34.2578 15.6445 35.4492C19.0625 38.4375 23.6133 39.5703 27.9688 38.4961C32.5195 37.3633 36.1523 34.0625 37.6953 29.5898C38.2422 28.0273 38.3594 27.207 38.3789 25.1953C38.3789 23.1836 38.2422 22.2656 37.6562 20.625C37.3828 19.8047 36.4258 17.8906 36.2305 17.7148C36.1523 17.6562 35.625 18.1445 34.4727 19.2969L32.8125 20.957L33.0664 21.5625C34.4922 24.9219 33.8281 28.6914 31.3672 31.3476C30.6055 32.1875 29.7656 32.793 28.6719 33.3203C27.2266 34.0234 26.543 34.1797 24.7461 34.1797C23.0078 34.1797 22.2266 34.0234 20.8203 33.3594C15.8203 30.9961 14.082 24.6875 17.168 20.0976C17.6563 19.3555 18.7305 18.2617 19.4336 17.7734C22.0703 15.8984 25.6836 15.5469 28.5156 16.9141L29.1797 17.2266L30.8203 15.5859C31.7188 14.6875 32.4609 13.9258 32.4609 13.8867C32.4609 13.6719 30.2539 12.5586 29.0039 12.1289C27.1484 11.5234 24.4141 11.3086 22.5195 11.6406Z" fill="black"/>
</svg>
