<svg width="160" height="123" viewBox="0 0 160 123" fill="none" xmlns="http://www.w3.org/2000/svg">
<g filter="url(#filter0_d_4_16)">
<path d="M143.966 32.1855H33.9211V30.4553C33.9211 28.596 35.343 27.0829 37.0911 27.0829H129.09C133.527 27.0829 137.138 23.2422 137.138 18.5219C137.138 13.8012 133.527 9.96048 129.09 9.96048H106.835C105.488 9.96048 104.396 11.1221 104.396 12.5548C104.396 13.9876 105.488 15.1492 106.835 15.1492H129.09C130.838 15.1492 132.26 16.6622 132.26 18.5219C132.26 20.3812 130.838 21.8942 129.09 21.8942H37.0911C32.6539 21.8942 29.0437 25.7349 29.0437 30.4553V32.1855H17.0345C13.1557 32.1855 10 35.543 10 39.6691V106.556C10 110.682 13.1557 114.039 17.0345 114.039H143.966C147.845 114.039 151 110.682 151 106.556V39.6691C151 35.543 147.845 32.1855 143.966 32.1855ZM146.123 106.556C146.123 107.821 145.155 108.85 143.966 108.85H17.0345C15.8451 108.85 14.8774 107.821 14.8774 106.556V39.6691C14.8774 38.4037 15.8451 37.3743 17.0345 37.3743H143.966C145.155 37.3743 146.123 38.4037 146.123 39.6691V106.556Z" fill="white"/>
<path d="M140.432 40.8338H20.5677C19.2206 40.8338 18.129 41.9954 18.129 43.4281V102.797C18.129 104.23 19.2206 105.391 20.5677 105.391H140.432C141.779 105.391 142.871 104.23 142.871 102.797V43.4281C142.871 41.9954 141.779 40.8338 140.432 40.8338ZM102.916 46.0225H118.016V55.6649H102.916V46.0225ZM42.9836 75.7076H58.0835V85.3714H42.9836V75.7076ZM32.9954 70.5188V60.8536H48.0952V70.5188H32.9954ZM52.9726 70.5188V60.8536H68.0724V70.5188H52.9726ZM62.9612 75.7076H78.0613V85.3714H62.9612V75.7076ZM72.9501 70.5188V60.8536H88.0499V70.5188H72.9501ZM82.9387 75.7076H98.0385V85.3714H82.9387V75.7076ZM92.9273 70.5188V60.8536H108.027V70.5188H92.9273ZM102.916 75.7076H118.016V85.3714H102.916V75.7076ZM112.905 70.5188V60.8536H123.507V70.5188H112.905ZM82.9387 46.0225H98.0385V55.6649H82.9387V46.0225ZM62.9612 46.0225H78.0613V55.6649H62.9612V46.0225ZM42.9836 46.0225H58.0835V55.6649H42.9836V46.0225ZM23.0064 46.0225H38.1062V55.6649H23.0064V46.0225ZM23.0064 60.8536H28.118V70.5188H23.0064V60.8536ZM23.0064 75.7076H38.1062V85.3714H23.0064V75.7076ZM28.118 100.203H23.0064V90.5602H28.118V100.203ZM48.0952 100.203H32.9954V90.5602H48.0952V100.203ZM68.0727 100.203H52.9729V90.5602H68.0727V100.203ZM88.0499 100.203H72.9501V90.5602H88.0499V100.203ZM108.027 100.203H92.9276V90.5602H108.027V100.203ZM128.005 100.203H112.905V90.5602H128.005V100.203ZM137.994 100.203H132.882V90.5602H137.994V100.203ZM137.994 85.3714H122.894V75.7076H125.946C127.293 75.7076 128.384 74.546 128.384 73.1132V60.8536H137.994V85.3714H137.994ZM137.994 55.6649H122.894V46.0225H137.994V55.6649Z" fill="white"/>
<path d="M97.8316 13.5471C97.8247 13.5292 97.8206 13.5189 97.8181 13.512C97.83 13.543 97.8729 13.6531 97.8316 13.5471Z" fill="white"/>
<path d="M101.809 14.3913C103.178 12.8911 102.392 10.2645 100.411 9.98607C98.5977 9.73078 97.1079 11.7274 97.8323 13.5473C98.5025 15.2333 100.577 15.6622 101.809 14.3913Z" fill="white"/>
<path d="M97.8188 13.5118C97.8127 13.5 97.8143 13.5027 97.8188 13.5118V13.5118Z" fill="white"/>
</g>
<defs>
<filter id="filter0_d_4_16" x="-4" y="0" width="168" height="128" filterUnits="userSpaceOnUse" color-interpolation-filters="sRGB">
<feFlood flood-opacity="0" result="BackgroundImageFix"/>
<feColorMatrix in="SourceAlpha" type="matrix" values="0 0 0 0 0 0 0 0 0 0 0 0 0 0 0 0 0 0 127 0" result="hardAlpha"/>
<feOffset dy="4"/>
<feGaussianBlur stdDeviation="2"/>
<feComposite in2="hardAlpha" operator="out"/>
<feColorMatrix type="matrix" values="0 0 0 0 0 0 0 0 0 0 0 0 0 0 0 0 0 0 0.25 0"/>
<feBlend mode="normal" in2="BackgroundImageFix" result="effect1_dropShadow_4_16"/>
<feBlend mode="normal" in="SourceGraphic" in2="effect1_dropShadow_4_16" result="shape"/>
</filter>
</defs>
</svg>
